<?xml version="1.0" standalone="no"?>
<!DOCTYPE svg PUBLIC "-//W3C//DTD SVG 20010904//EN"
 "http://www.w3.org/TR/2001/REC-SVG-20010904/DTD/svg10.dtd">
<svg version="1.0" xmlns="http://www.w3.org/2000/svg"
 width="806.000000pt" height="806.000000pt" viewBox="0 0 806.000000 806.000000"
 preserveAspectRatio="xMidYMid meet">
<metadata>
Created by potrace 1.14, written by Peter Selinger 2001-2017
</metadata>
<g transform="translate(0.000000,806.000000) scale(0.100000,-0.100000)"
fill="#000000" stroke="none">
<path d="M516 5168 c-9 -12 -16 -28 -16 -35 0 -7 -4 -13 -8 -13 -5 0 -8 -10
-7 -22 1 -12 -4 -34 -12 -48 -7 -14 -13 -32 -13 -40 0 -9 -7 -25 -15 -37 -37
-53 -49 -195 -25 -293 16 -66 18 -75 20 -77 2 -2 3 -6 4 -10 0 -5 14 -33 29
-63 29 -58 84 -102 153 -125 18 -5 44 -24 58 -42 24 -28 28 -42 30 -115 6
-145 40 -246 101 -292 20 -16 34 -30 32 -33 -6 -5 -104 43 -123 61 -8 6 -19
16 -26 22 -18 16 -191 199 -203 215 -34 46 -56 79 -50 79 3 0 -3 10 -15 22
-11 12 -20 27 -20 34 0 7 -4 15 -9 18 -10 6 -8 -20 3 -49 12 -31 30 -70 36
-75 3 -3 17 -24 32 -47 37 -56 232 -249 269 -265 16 -7 29 -16 29 -20 0 -5 3
-7 8 -6 17 6 134 -45 160 -69 15 -14 50 -43 78 -63 28 -21 66 -53 84 -72 42
-42 112 -91 170 -119 55 -27 66 -32 160 -84 41 -23 101 -50 133 -60 32 -10 60
-22 63 -26 3 -5 14 -9 24 -9 10 0 20 -4 22 -8 3 -7 38 -19 158 -53 53 -15 86
-19 195 -25 55 -3 117 -9 138 -14 20 -4 39 -5 41 -1 9 15 218 -9 256 -29 10
-5 19 -7 22 -5 5 5 86 -19 130 -38 58 -26 225 -88 249 -92 13 -3 36 -7 51 -11
15 -3 114 -5 220 -4 106 0 254 0 328 -1 224 -2 873 -3 910 -1 74 5 587 -8 630
-15 25 -5 79 -5 120 -1 74 7 87 9 145 24 17 4 45 7 63 7 18 0 35 3 38 8 7 12
93 49 115 49 10 0 21 5 24 10 3 6 23 10 43 10 20 0 46 7 56 15 10 8 23 12 27
9 5 -3 9 0 9 6 0 6 3 9 8 6 4 -2 46 3 92 13 47 9 108 15 135 13 98 -7 210 -8
219 -3 5 2 40 5 77 7 37 1 89 9 116 17 26 8 78 21 116 27 37 7 70 16 73 21 3
5 10 6 16 3 6 -4 13 -2 17 4 3 6 18 13 31 16 14 3 42 10 63 15 20 5 37 7 37 4
0 -3 6 0 14 6 21 18 160 18 178 1 20 -20 79 -65 87 -66 3 0 20 -6 36 -13 28
-12 102 -9 139 5 16 6 18 10 20 37 1 6 4 14 8 17 3 3 -7 36 -23 74 -33 78 -34
102 -1 131 34 31 38 74 9 108 -13 15 -34 27 -45 27 -11 0 -24 5 -27 10 -3 6
-15 10 -26 10 -12 0 -17 4 -14 11 4 6 10 8 13 5 8 -9 74 63 67 74 -3 6 0 10 7
10 9 0 10 3 2 8 -14 9 -9 42 7 53 21 13 21 49 1 49 -10 0 -22 4 -28 10 -5 5
-21 11 -34 14 -14 2 -27 5 -30 6 -6 3 -2 3 -70 -5 -30 -3 -86 -8 -125 -10 -38
-3 -98 -7 -132 -10 -45 -3 -63 -1 -64 8 0 6 -4 3 -8 -7 -10 -25 -130 -64 -188
-61 -24 1 -43 -2 -43 -6 0 -14 -37 -29 -82 -34 -24 -3 -61 -8 -83 -12 -22 -3
-101 -7 -175 -8 -93 -2 -155 -8 -200 -20 -71 -19 -76 -20 -135 -15 -26 3 -39
0 -38 -7 2 -8 -7 -9 -28 -3 -17 5 -34 9 -38 8 -3 0 -8 1 -11 2 -17 6 -98 4
-114 -3 -11 -6 -36 -12 -55 -14 -20 -2 -49 -8 -66 -13 -16 -5 -64 -10 -105
-11 -75 -2 -113 -12 -139 -37 -22 -21 -9 -22 53 -1 33 10 61 17 64 15 2 -3 15
-1 27 4 16 6 25 5 29 -3 3 -9 7 -9 14 1 5 8 38 14 87 17 43 2 81 8 84 13 7 11
171 12 171 2 0 -4 12 -6 28 -4 15 2 21 1 13 -2 -7 -4 -29 -24 -49 -46 -32 -35
-92 -77 -92 -64 0 3 -12 1 -27 -5 -16 -6 -68 -13 -118 -15 -156 -7 -217 -13
-317 -29 -64 -11 -92 -17 -115 -26 -12 -4 -23 -5 -23 0 0 9 -74 6 -90 -4 -5
-3 -10 0 -10 7 0 10 -2 10 -9 -1 -6 -10 -10 -10 -16 -2 -7 12 -115 12 -115 1
0 -3 -25 -6 -55 -8 -62 -4 -95 -9 -103 -17 -3 -2 -11 0 -18 6 -7 6 -29 9 -48
6 -19 -3 -38 -2 -41 2 -4 3 -10 6 -13 6 -4 1 -17 6 -28 13 -12 6 -24 8 -28 5
-3 -3 -6 -1 -6 6 0 13 40 11 73 -4 11 -5 23 -3 30 5 9 10 9 12 -4 7 -9 -3 -22
0 -28 6 -8 8 -81 12 -234 14 -239 2 -273 -1 -280 -21 -4 -11 14 -13 87 -12 67
1 98 -3 110 -13 27 -23 0 -32 -69 -25 -56 7 -78 7 -165 4 -19 0 -59 3 -87 8
-29 5 -53 5 -53 1 0 -5 3 -10 8 -10 4 -1 16 -3 27 -5 11 -2 34 -6 50 -8 17 -3
72 -8 124 -11 117 -7 110 -6 148 -32 17 -13 38 -20 46 -17 8 3 18 1 22 -5 3
-6 1 -11 -6 -11 -8 0 -7 -5 2 -17 13 -15 12 -16 -8 -11 -13 4 -23 3 -23 -1 0
-4 -12 -8 -27 -9 -16 -1 -44 -5 -63 -7 -19 -3 -45 -7 -57 -9 -13 -2 -23 1 -23
7 0 5 -6 4 -14 -2 -12 -10 -19 -8 -35 8 -12 12 -21 17 -21 13 0 -4 5 -13 12
-20 15 -15 28 -14 -249 -14 -117 1 -223 4 -235 8 -12 4 -43 8 -68 9 -25 2 -83
10 -130 19 -47 9 -85 16 -86 16 -1 0 -13 11 -28 25 -24 22 -48 29 -108 28 -10
0 -18 4 -18 9 0 4 -6 8 -13 8 -8 0 -28 7 -44 15 -33 16 -87 21 -142 11 -41 -7
-65 -25 -35 -27 31 -2 58 2 67 10 4 5 37 -2 73 -15 35 -13 66 -24 69 -24 3 0
6 0 8 -1 1 0 10 -2 20 -4 10 -2 26 -7 35 -11 9 -4 26 -9 37 -11 10 -2 22 -8
25 -13 9 -15 82 -43 120 -47 35 -4 126 -41 118 -48 -14 -14 -228 -22 -293 -12
-50 9 -119 18 -165 22 -19 2 -51 6 -70 9 -19 2 -75 8 -125 11 -49 4 -105 14
-124 23 -19 9 -52 16 -73 16 -21 0 -38 3 -38 8 0 4 -5 8 -12 8 -6 0 -26 18
-45 40 -25 28 -42 40 -62 40 -15 0 -32 5 -38 11 -6 6 -41 12 -79 13 -38 2 -82
6 -99 11 -98 25 -351 116 -462 166 -23 11 -47 19 -54 19 -6 0 -38 14 -71 30
-32 17 -69 30 -81 30 -12 0 -33 7 -45 16 -12 8 -22 13 -22 10 0 -3 -12 -1 -27
5 -14 5 -38 11 -52 13 -14 2 -51 10 -81 19 -30 9 -72 18 -92 21 -84 13 -239
95 -251 134 -3 9 -17 44 -31 77 -15 33 -31 89 -37 125 -21 133 -33 150 -129
197 -69 33 -140 95 -158 136 -33 78 -50 150 -48 210 2 65 23 157 36 157 3 0 7
6 8 13 0 6 7 31 16 54 16 42 23 73 31 132 3 18 7 37 10 41 13 20 -15 18 -29
-2z m494 -1338 c0 -5 3 -9 8 -8 4 1 21 -4 37 -11 17 -7 37 -15 45 -17 84 -21
166 -47 175 -54 5 -4 13 -8 18 -9 53 -1 119 -22 197 -62 52 -27 109 -51 127
-55 17 -3 41 -15 52 -25 11 -11 29 -19 41 -19 11 0 28 -9 37 -20 10 -11 24
-20 33 -20 9 0 24 -6 35 -14 11 -7 47 -21 80 -31 33 -9 74 -24 92 -31 17 -8
36 -14 41 -14 6 0 23 -5 39 -12 27 -11 37 -13 78 -21 40 -7 105 -30 105 -37 0
-7 -119 -6 -150 1 -8 2 -18 9 -22 14 -5 6 -8 6 -8 -1 0 -14 -98 0 -114 16 -5
5 -18 10 -28 10 -10 0 -18 4 -18 8 0 5 -7 9 -15 10 -8 1 -22 3 -30 4 -8 1 -15
5 -15 8 0 4 -15 11 -32 15 -40 9 -31 7 -98 30 -30 10 -73 28 -95 41 -22 12
-51 23 -65 25 -14 2 -43 16 -65 30 -22 14 -71 41 -110 59 -38 18 -83 43 -100
55 -25 18 -82 43 -117 51 -5 1 -10 3 -13 4 -3 1 -8 3 -12 5 -5 1 -21 5 -38 10
-52 14 -137 75 -106 75 6 0 11 -4 11 -10z m5160 -40 c0 -12 -41 -40 -67 -46
-16 -4 -30 -11 -34 -15 -3 -5 -45 -11 -95 -13 -49 -3 -106 -7 -126 -9 -47 -6
-49 8 -4 23 19 6 37 17 40 25 11 30 68 43 178 41 60 0 108 -3 108 -6z m162
-91 c10 -5 16 -14 13 -20 -8 -12 -32 -12 -37 0 -3 10 -90 -16 -98 -30 -5 -7
-58 -22 -129 -35 -14 -3 -29 -8 -35 -12 -12 -7 -28 -11 -71 -15 -17 -2 -35 -5
-40 -9 -6 -3 -39 -6 -75 -8 -36 -1 -78 -3 -95 -4 -51 -4 -55 4 -22 39 26 26
42 34 82 39 28 3 68 8 90 12 22 4 46 7 53 7 6 0 12 4 12 7 0 10 55 22 118 25
66 4 155 14 160 19 6 6 52 -4 74 -15z m500 12 c4 -1 5 -7 2 -14 -3 -9 -23 -14
-52 -15 l-47 -2 29 19 c15 10 36 17 45 16 9 -2 19 -4 23 -4z m-397 -91 c3 -5
-3 -10 -15 -10 -12 0 -18 5 -15 10 3 6 10 10 15 10 5 0 12 -4 15 -10z m190
-21 c-3 -3 -16 -6 -30 -6 -14 0 -25 3 -25 6 0 4 13 7 29 7 17 0 28 -3 26 -7z
m-145 -40 c0 -6 -21 -10 -52 -9 -29 1 -57 1 -63 0 -5 -1 -14 -2 -19 -1 -4 1
-14 -4 -22 -10 -11 -9 -14 -8 -14 3 0 8 3 18 7 21 11 12 163 8 163 -4z m-193
-30 c-28 -16 -87 -40 -87 -34 0 6 82 44 95 44 6 0 2 -4 -8 -10z m-3802 -134
c27 -4 54 -10 60 -14 5 -5 18 -7 28 -6 9 2 17 0 17 -3 0 -4 26 -7 58 -8 65 -1
117 -9 158 -25 16 -6 54 -12 84 -13 30 -2 64 -6 76 -10 11 -3 41 -8 65 -11 24
-2 55 -7 69 -10 14 -3 48 -5 75 -5 28 1 59 2 70 1 11 -1 48 -1 82 -1 50 -1 70
-6 103 -27 44 -29 52 -32 123 -40 34 -4 54 -1 72 11 14 9 25 13 25 9 0 -5 4
-3 8 4 21 33 110 45 212 28 25 -4 54 -8 64 -8 12 -1 20 -10 21 -24 1 -13 -2
-23 -7 -23 -4 0 -8 -12 -8 -26 0 -17 4 -23 13 -18 9 5 9 4 0 -6 -13 -14 -198
-16 -418 -5 -60 3 -157 5 -215 4 -169 -3 -345 3 -345 11 0 1 -17 3 -37 4 -20
1 -40 5 -44 9 -4 4 -18 7 -31 7 -13 0 -26 6 -29 14 -5 13 -76 33 -96 28 -5 -1
-8 3 -8 8 0 6 -9 10 -20 10 -11 0 -20 5 -20 11 0 5 -4 8 -9 4 -5 -3 -12 -1
-15 4 -4 5 -14 8 -24 6 -9 -1 -23 2 -31 8 -15 12 -74 36 -106 42 -50 10 -164
27 -182 28 -29 1 -10 16 27 22 22 4 40 10 40 15 0 5 10 7 23 5 12 -2 44 -6 72
-10z m2967 -4 c67 -1 52 -20 -21 -25 -28 -2 -54 -6 -57 -8 -4 -5 -67 -3 -149
5 -22 2 -63 -3 -91 -13 -34 -11 -59 -14 -74 -8 -16 6 -26 5 -31 -3 -4 -7 -32
-13 -62 -14 -30 -1 -60 -5 -66 -9 -6 -4 -11 -2 -11 3 0 6 17 22 38 35 34 23
50 26 192 32 85 3 156 7 157 8 1 0 29 0 62 0 34 -1 84 -2 113 -3z m-982 -64
c0 -4 7 -4 17 1 10 6 28 6 47 0 17 -5 42 -11 55 -14 29 -6 41 -13 41 -22 0 -7
-67 -12 -155 -10 -27 0 -83 1 -122 1 -67 0 -92 8 -60 20 6 2 9 7 6 11 -9 9
-40 -4 -33 -15 6 -11 -25 -7 -45 6 -12 7 -7 11 17 19 38 13 232 15 232 3z
m-270 -17 c0 -5 -4 -10 -10 -10 -5 0 -10 5 -10 10 0 6 5 10 10 10 6 0 10 -4
10 -10z"/>
<path d="M987 5065 c-59 -22 -124 -74 -164 -132 -32 -47 -37 -62 -39 -119 -3
-62 9 -118 28 -139 5 -6 86 -10 198 -10 182 0 241 12 109 21 -93 7 -104 11
-138 45 -69 69 -75 243 -9 292 31 23 115 24 177 2 53 -18 139 -83 185 -138 44
-53 65 -41 29 15 -42 68 -84 142 -90 161 -4 12 -11 16 -22 11 -18 -7 -20 -7
-141 -1 -58 4 -97 1 -123 -8z"/>
<path d="M1479 5054 c20 -25 21 -40 21 -208 l0 -181 92 0 92 0 -1 183 c0 181
0 182 25 207 l25 25 -137 0 -137 0 20 -26z"/>
<path d="M2266 5066 c17 -13 19 -31 24 -207 l5 -194 88 0 87 0 1 35 c1 19 1
101 0 181 0 142 0 148 24 173 l24 26 -136 0 c-121 0 -135 -2 -117 -14z"/>
<path d="M2910 5064 c-113 -30 -248 -143 -299 -249 -37 -75 -54 -144 -37 -146
6 -1 48 -2 93 -3 67 -1 83 2 84 14 2 48 11 110 21 145 7 22 12 42 13 45 0 3
12 27 25 54 28 56 80 102 129 116 50 14 159 5 218 -18 67 -26 169 -100 183
-133 6 -14 17 -26 25 -26 17 0 7 27 -51 133 -44 81 -44 82 -76 75 -18 -4 -44
-6 -58 -4 -106 11 -221 10 -270 -3z"/>
<path d="M3530 5062 c25 -20 25 -23 30 -208 l5 -188 78 1 c43 0 80 3 84 6 3 3
5 90 5 193 l-1 187 74 -7 c91 -8 163 -29 236 -68 59 -31 123 -83 130 -107 3
-8 11 -12 18 -10 8 3 -5 37 -42 109 -44 86 -57 104 -73 100 -22 -6 -102 -5
-374 5 l-195 8 25 -21z"/>
<path d="M4553 5055 c25 -25 25 -26 24 -203 l-1 -177 87 -3 87 -3 0 181 c0
179 0 181 25 205 l24 25 -136 0 -136 0 26 -25z"/>
<path d="M5207 5065 c-171 -48 -289 -167 -341 -342 l-15 -53 27 -1 c82 -2 144
-1 147 3 3 2 7 29 10 59 19 166 92 279 201 308 100 27 227 -60 291 -198 19
-41 39 -97 45 -123 l11 -48 99 0 99 0 -6 43 c-16 113 -103 228 -229 303 -100
59 -233 79 -339 49z"/>
<path d="M5855 5056 c25 -25 25 -26 25 -206 l0 -180 251 0 c166 0 248 3 244
10 -3 6 7 21 23 35 104 87 88 255 -31 332 l-42 28 -248 3 -247 3 25 -25z m321
-19 c77 -30 129 -108 119 -179 -16 -106 -87 -165 -197 -167 l-47 -1 1 180 1
180 46 -1 c25 0 60 -6 77 -12z"/>
<path d="M6813 5055 c-74 -34 -108 -62 -150 -122 -32 -47 -37 -62 -39 -121 -2
-42 3 -81 13 -104 l15 -38 192 1 c111 1 181 4 166 9 -14 4 -50 8 -81 9 -49 1
-60 5 -91 35 -49 48 -71 100 -72 171 -2 132 89 179 240 124 47 -17 74 -36 132
-96 40 -40 77 -71 82 -68 6 3 -4 29 -23 58 -18 29 -46 77 -62 108 -25 49 -32
56 -50 49 -11 -4 -29 -6 -40 -4 -11 3 -56 6 -100 9 -70 4 -87 1 -132 -20z"/>
<path d="M3930 4773 c0 -10 -11 -38 -25 -62 -14 -23 -25 -44 -25 -45 0 -1 18
0 40 2 l40 4 0 59 c0 46 -3 59 -15 59 -8 0 -15 -8 -15 -17z"/>
<path d="M2318 4552 l-28 -3 0 -189 c0 -184 -1 -189 -22 -204 -21 -15 -12 -16
114 -16 l137 0 -23 23 c-23 23 -24 30 -24 183 0 87 -1 169 -1 181 -1 19 -7 22
-63 25 -35 1 -75 2 -90 0z"/>
<path d="M2565 4552 c-2 -2 3 -27 9 -56 33 -140 181 -302 308 -337 71 -19 195
-19 290 0 89 19 141 16 186 -8 l22 -12 0 176 c0 149 -2 175 -15 175 -9 0 -15
-9 -15 -22 0 -30 -28 -103 -58 -153 -138 -227 -372 -183 -482 90 -13 33 -29
80 -35 104 l-12 43 -97 2 c-54 0 -99 0 -101 -2z"/>
<path d="M3564 4551 c-2 -2 -4 -86 -4 -185 0 -100 -4 -186 -8 -192 -4 -6 -16
-16 -27 -23 -16 -10 23 -11 195 -6 118 3 233 7 255 9 22 1 57 -1 77 -5 28 -5
41 -2 52 10 20 23 95 185 90 193 -9 14 -23 8 -29 -12 -3 -11 -22 -34 -40 -52
-73 -68 -188 -113 -322 -123 l-71 -6 -1 163 c0 90 0 179 0 198 l-1 35 -81 1
c-44 0 -82 -2 -85 -5z"/>
<path d="M3919 4513 c21 -57 43 -58 39 -1 -3 37 -6 42 -29 43 l-25 2 15 -44z"/>
<path d="M4580 4541 c-1 -9 -2 -119 -4 -246 -3 -209 -5 -235 -25 -287 -14 -35
-35 -67 -54 -83 l-32 -25 55 5 c84 8 159 50 195 109 l30 49 3 247 3 246 -85 1
c-73 1 -86 -2 -86 -16z"/>
<path d="M4855 4550 c-8 -13 23 -108 51 -156 111 -191 226 -257 434 -249 118
5 136 9 193 41 69 38 141 107 185 177 46 74 50 85 58 147 l6 49 -91 -1 -91 0
-1 -42 c-1 -81 -25 -164 -70 -243 -50 -87 -121 -121 -214 -101 -96 20 -212
168 -255 323 l-17 60 -92 1 c-51 0 -94 -3 -96 -6z"/>
<path d="M5886 4553 c-3 -4 -6 -88 -6 -187 0 -100 -4 -186 -8 -192 -4 -6 -16
-16 -27 -22 -26 -15 477 -16 547 -1 63 14 127 65 163 130 25 47 29 64 29 134
-1 55 -6 90 -18 113 l-17 32 -93 0 -94 0 25 -61 c39 -97 18 -182 -67 -267 -50
-49 -114 -72 -205 -72 l-62 0 -1 173 c0 94 -1 184 -1 198 -1 26 -2 27 -80 27
-43 0 -82 -2 -85 -5z"/>
<path d="M6827 4539 c23 -11 66 -20 98 -20 47 -1 64 -7 98 -33 69 -53 97 -133
77 -217 -17 -69 -47 -92 -125 -97 -103 -7 -197 46 -297 167 -30 36 -59 34 -35
-2 7 -12 35 -60 61 -107 l47 -85 142 1 c104 0 151 5 177 16 46 20 114 87 142
140 29 56 31 155 4 216 l-19 42 -206 -1 -206 -1 42 -19z"/>
<path d="M990 4533 c25 -8 68 -14 96 -14 65 0 104 -24 138 -85 46 -81 41 -186
-10 -238 -23 -22 -35 -26 -85 -26 -85 0 -156 30 -222 95 -31 29 -63 65 -72 79
-9 14 -22 22 -31 19 -14 -5 -12 -9 67 -149 41 -75 27 -69 182 -68 137 0 144 1
195 29 88 48 144 134 148 227 2 52 -9 104 -29 136 -6 9 -60 12 -215 11 -196
-1 -205 -2 -162 -16z"/>
<path d="M1500 4365 c0 -172 -1 -186 -20 -205 l-20 -20 345 0 345 0 0 175 c0
146 -2 175 -15 175 -8 0 -17 -14 -21 -35 -3 -19 -10 -38 -15 -41 -5 -3 -9 -14
-9 -24 0 -19 -85 -152 -102 -158 -4 -2 -14 -9 -21 -15 -37 -35 -116 -57 -207
-57 l-77 0 -1 183 c0 100 -1 188 -1 195 -1 9 -26 12 -91 12 l-90 0 0 -185z"/>
<path d="M1262 4114 c-9 -10 -5 -16 20 -28 17 -9 38 -16 47 -16 9 0 24 -7 34
-15 11 -7 26 -11 35 -8 9 4 13 2 9 -4 -3 -5 18 -17 48 -27 64 -20 69 -20 73
-8 1 5 -18 15 -44 21 -25 7 -68 23 -95 36 -27 14 -54 25 -62 25 -7 0 -22 8
-33 18 -16 15 -22 16 -32 6z"/>
<path d="M6485 3980 c-11 -5 -66 -23 -122 -40 -56 -17 -104 -38 -107 -45 -5
-15 23 -13 80 6 17 5 40 11 50 13 10 3 37 8 59 13 22 5 52 8 67 8 15 -1 30 5
32 11 3 7 14 10 25 7 31 -8 25 3 -11 21 -35 18 -44 19 -73 6z"/>
<path d="M2335 3720 c3 -5 8 -10 11 -10 2 0 4 5 4 10 0 6 -5 10 -11 10 -5 0
-7 -4 -4 -10z"/>
<path d="M2370 3715 c0 -6 6 -12 13 -13 6 0 39 -8 72 -17 33 -10 65 -18 70
-19 6 -1 15 -5 21 -9 7 -4 27 -9 45 -11 64 -9 104 -17 139 -28 19 -7 38 -13
43 -14 4 -1 8 -2 10 -4 1 -1 11 -3 22 -5 10 -2 29 -9 41 -16 24 -13 54 -6 54
11 0 6 -4 8 -10 5 -5 -3 -10 -1 -10 4 0 6 -3 10 -7 10 -5 -1 -11 0 -15 1 -5 1
-11 3 -15 4 -38 9 -134 40 -158 51 -17 8 -42 16 -55 19 -14 3 -36 7 -50 10
-73 16 -76 16 -187 30 -13 2 -23 -2 -23 -9z"/>
<path d="M5055 3700 c3 -5 -20 -17 -52 -27 -32 -9 -51 -18 -41 -20 9 -2 33 3
53 11 20 9 41 14 45 11 4 -3 10 1 13 9 3 8 -1 17 -9 20 -8 3 -12 1 -9 -4z"/>
<path d="M2780 3667 c0 -18 88 -35 202 -39 24 0 53 -5 66 -9 14 -5 22 -5 22 2
0 6 5 7 11 3 7 -4 37 -9 68 -11 31 -2 64 -5 74 -7 9 -2 17 0 17 5 0 9 159 4
223 -7 18 -3 27 0 27 9 0 19 -89 27 -435 41 -60 2 -121 7 -135 11 -14 3 -51 8
-82 11 -47 4 -58 3 -58 -9z"/>
<path d="M4895 3650 c-3 -5 -1 -10 4 -10 6 0 11 5 11 10 0 6 -2 10 -4 10 -3 0
-8 -4 -11 -10z"/>
<path d="M2376 3642 c-2 -4 11 -9 31 -10 20 -2 40 -5 44 -8 4 -2 10 0 13 5 3
5 -8 11 -25 15 -42 8 -57 8 -63 -2z"/>
<path d="M3518 3593 c6 -2 18 -2 25 0 6 3 1 5 -13 5 -14 0 -19 -2 -12 -5z"/>
<path d="M3638 3579 c-6 -4 10 -8 36 -10 27 -3 46 0 46 6 0 11 -66 14 -82 4z"/>
<path d="M5493 3088 c-29 -11 -53 -24 -53 -28 0 -15 39 -17 65 -4 14 7 42 14
61 16 35 2 43 11 22 25 -23 13 -42 12 -95 -9z"/>
</g>
</svg>
